<?xml version="1.0" encoding="UTF-8" standalone="no"?>
<!-- Created with Inkscape (http://www.inkscape.org/) -->
<svg id="svg2" xmlns:rdf="http://www.w3.org/1999/02/22-rdf-syntax-ns#" xmlns="http://www.w3.org/2000/svg" height="297mm" width="210mm" version="1.1" enable-background="new" xmlns:cc="http://creativecommons.org/ns#" xmlns:dc="http://purl.org/dc/elements/1.1/" viewBox="0 0 744.09448819 1052.3622047">
 <defs id="defs4">
  <filter id="filter4950" style="color-interpolation-filters:sRGB">
   <feBlend id="feBlend4952" in2="BackgroundImage" mode="lighten"/>
  </filter>
  <filter id="filter4998" style="color-interpolation-filters:sRGB">
   <feBlend id="feBlend5000" in2="BackgroundImage" mode="darken"/>
  </filter>
  <filter id="filter5022" style="color-interpolation-filters:sRGB">
   <feBlend id="feBlend5024" in2="BackgroundImage" mode="multiply"/>
  </filter>
 </defs>
 <metadata id="metadata7">
  <rdf:RDF>
   <cc:Work rdf:about="">
    <dc:format>image/svg+xml</dc:format>
    <dc:type rdf:resource="http://purl.org/dc/dcmitype/StillImage"/>
    <dc:title/>
   </cc:Work>
  </rdf:RDF>
 </metadata>
 <g id="layer3">
  <g id="g5130" transform="matrix(1.0276 0 0 .92575 -4.5429 61.291)">
   <rect id="rect5038" opacity="0.99" height="318.2" width="234.36" y="507.32" x="164.7" fill="#f36b17"/>
   <rect id="rect5070" opacity="0.99" height="318.2" width="234.36" y="426.44" x="224.69" fill="#225275"/>
   <rect id="rect5072" opacity="0.99" height="318.2" width="234.36" y="345.57" x="284.69" fill="#f5a50e"/>
   <rect id="rect5074" opacity="0.99" height="318.2" width="234.36" y="264.69" x="344.68" fill="#38153a"/>
   <path id="rect5110" opacity="0.99" d="m344.68 345.57v237.32h174.36v-237.32h-174.36z" fill="#ef5a06"/>
   <path id="rect5120" opacity="0.99" d="m284.69 426.44v237.32h174.36v-237.32h-174.36z" fill="#416a0d"/>
   <path id="rect5125" opacity="0.99" d="m224.69 507.32v237.32h174.36v-237.32h-174.36z" fill="#ea4415"/>
   <path id="rect5094" opacity="0.99" d="m344.68 426.44v156.45h114.37v-156.45h-114.37z" fill="#1d1106"/>
   <path id="rect5115" opacity="0.99" d="m284.69 507.32v156.45h114.37v-156.45h-114.37z" fill="#fd5802"/>
   <path id="rect5076" opacity="0.99" d="m344.68 507.32v75.568h54.375v-75.568h-54.375z" fill="#fc0e01"/>
  </g>
 </g>
</svg>
